<svg xmlns="http://www.w3.org/2000/svg" viewBox="0 0 24 24" fill="none" stroke="#64748B" stroke-width="1.5" stroke-linecap="round" stroke-linejoin="round">
  <line x1="12" y1="4.5" x2="12" y2="8"/>
  <line x1="6" y1="8" x2="18" y2="8"/>
  <line x1="6" y1="8" x2="6" y2="10.5"/>
  <line x1="18" y1="8" x2="18" y2="10.5"/>
  <line x1="6" y1="13.5" x2="6" y2="17"/>
  <line x1="3" y1="17" x2="9" y2="17"/>
  <line x1="3" y1="17" x2="3" y2="19.5"/>
  <line x1="9" y1="17" x2="9" y2="19.5"/>
  <line x1="18" y1="13.5" x2="18" y2="17"/>
  <line x1="15" y1="17" x2="21" y2="17"/>
  <line x1="15" y1="17" x2="15" y2="19.5"/>
  <line x1="21" y1="17" x2="21" y2="19.5"/>
  <circle cx="12" cy="3" r="1.5" fill="#64748B" stroke="none"/>
  <circle cx="6" cy="12" r="1.5" fill="#64748B" stroke="none"/>
  <circle cx="18" cy="12" r="1.5" fill="#64748B" stroke="none"/>
  <circle cx="3" cy="21" r="1.5" fill="#64748B" stroke="none"/>
  <circle cx="9" cy="21" r="1.5" fill="#64748B" stroke="none"/>
  <circle cx="15" cy="21" r="1.5" fill="#64748B" stroke="none"/>
  <circle cx="21" cy="21" r="1.5" fill="#64748B" stroke="none"/>
</svg>
