<?xml version="1.0" encoding="UTF-8"?>
<svg xmlns="http://www.w3.org/2000/svg" width="1280" height="800" viewBox="0 0 1280 800">

  <!-- Background -->
  <rect width="1280" height="800" fill="#F5F5F7"/>

  <!-- Title -->
  <text x="640" y="42" text-anchor="middle" font-family="Segoe UI, Arial, sans-serif" font-size="32" font-weight="700" fill="#1D1D1F">Reactor</text>
  <text x="640" y="70" text-anchor="middle" font-family="Segoe UI, Arial, sans-serif" font-size="14" font-weight="400" fill="#86868B">Declarative UI for Windows &#x2014; powered by C# and WinUI 3</text>

  <!-- ================================================================ -->
  <!-- ROW 1  (y=88, h=130)                                            -->
  <!-- ================================================================ -->

  <!-- 4. Data System  (620x130) -->
  <rect x="30" y="88" width="620" height="130" rx="14" fill="#15803D"/>
  <g transform="translate(582, 131)" opacity="0.2">
    <!-- table outline -->
    <rect x="0" y="0" width="50" height="40" rx="3" fill="none" stroke="white" stroke-width="2.5"/>
    <!-- header row -->
    <rect x="0" y="0" width="50" height="12" rx="3" fill="white"/>
    <rect x="0" y="9" width="50" height="3" fill="white"/>
    <!-- row line -->
    <line x1="0" y1="26" x2="50" y2="26" stroke="white" stroke-width="1.5"/>
    <!-- column lines -->
    <line x1="17" y1="12" x2="17" y2="40" stroke="white" stroke-width="1.5"/>
    <line x1="34" y1="12" x2="34" y2="40" stroke="white" stroke-width="1.5"/>
  </g>
  <text x="54" y="134" font-family="Segoe UI, sans-serif" font-size="17" font-weight="700" fill="#FFFFFF">Data System</text>
  <text x="54" y="160" font-family="Segoe UI, sans-serif" font-size="12" fill="#E0E0E6">PropertyGrid &#xB7; DataGrid &#xB7; FormField &#xB7; Validation</text>
  <text x="54" y="178" font-family="Segoe UI, sans-serif" font-size="12" fill="#E0E0E6">Shared field metadata &#xB7; type-driven editors &#xB7; IDataSource</text>

  <!-- 6. Type-Safe Navigation  (590x130) -->
  <rect x="660" y="88" width="590" height="130" rx="14" fill="#0E7490"/>
  <g transform="translate(1190, 131)" opacity="0.2">
    <circle cx="22" cy="22" r="20" fill="none" stroke="white" stroke-width="2.5"/>
    <polygon points="22,6 16,28 22,22 28,28" fill="white"/>
  </g>
  <text x="684" y="134" font-family="Segoe UI, sans-serif" font-size="17" font-weight="700" fill="#FFFFFF">Type-Safe Navigation</text>
  <text x="684" y="160" font-family="Segoe UI, sans-serif" font-size="12" fill="#E0E0E6">Enum routes &#xB7; stack navigation &#xB7; connected page transitions</text>
  <text x="684" y="178" font-family="Segoe UI, sans-serif" font-size="12" fill="#E0E0E6">NavigationView sidebar &#xB7; TabView &#xB7; system back button</text>

  <!-- ================================================================ -->
  <!-- HERO SECTION  (y=228, h=280)                                    -->
  <!-- ================================================================ -->

  <!-- 2. React-Style Hooks  (tall left, 200x280) -->
  <rect x="30" y="228" width="200" height="280" rx="14" fill="#4338CA"/>
  <g transform="translate(95, 248)" opacity="0.2">
    <path d="M20,5 Q8,5 8,17 L8,28 Q8,35 0,35 Q8,35 8,42 L8,53 Q8,65 20,65" fill="none" stroke="white" stroke-width="4" stroke-linecap="round"/>
    <path d="M50,5 Q62,5 62,17 L62,28 Q62,35 70,35 Q62,35 62,42 L62,53 Q62,65 50,65" fill="none" stroke="white" stroke-width="4" stroke-linecap="round"/>
  </g>
  <text x="52" y="340" font-family="Segoe UI, sans-serif" font-size="13" fill="#C7D2FE">React-Style</text>
  <text x="52" y="368" font-family="Segoe UI, sans-serif" font-size="24" font-weight="700" fill="#FFFFFF">Hooks</text>
  <text x="52" y="398" font-family="Segoe UI, sans-serif" font-size="11" fill="#E0E0E6">UseState &#xB7; UseEffect</text>
  <text x="52" y="414" font-family="Segoe UI, sans-serif" font-size="11" fill="#E0E0E6">UseResource &#xB7; UseMutation</text>
  <text x="52" y="428" font-family="Segoe UI, sans-serif" font-size="10" fill="#A5B4FC">async, with Pending scope</text>
  <text x="52" y="448" font-family="Segoe UI, sans-serif" font-size="11" fill="#E0E0E6">UseReducer &#xB7; UseMemo</text>
  <text x="52" y="464" font-family="Segoe UI, sans-serif" font-size="11" fill="#E0E0E6">UseContext</text>

  <!-- 1. HERO: Pure C# Declarative UI  (center, 780x280) -->
  <rect x="240" y="228" width="780" height="280" rx="16" fill="#18181B"/>

  <!-- Hero left text -->
  <text x="264" y="266" font-family="Segoe UI, sans-serif" font-size="11" font-weight="600" fill="#71717A" letter-spacing="1.5">THE FOUNDATION</text>
  <text x="264" y="306" font-family="Segoe UI, sans-serif" font-size="30" font-weight="700" fill="#FFFFFF">Pure C#</text>
  <text x="264" y="340" font-family="Segoe UI, sans-serif" font-size="30" font-weight="700" fill="#FFFFFF">Declarative UI</text>
  <text x="264" y="380" font-family="Segoe UI, sans-serif" font-size="13" fill="#A1A1AA">No XAML. 200+ factory methods.</text>
  <text x="264" y="400" font-family="Segoe UI, sans-serif" font-size="13" fill="#A1A1AA">Fluent modifier chains.</text>
  <text x="264" y="420" font-family="Segoe UI, sans-serif" font-size="13" fill="#A1A1AA">Full IntelliSense support.</text>

  <!-- Hero right code block -->
  <rect x="572" y="248" width="434" height="242" rx="10" fill="#09090B"/>
  <text x="996" y="242" text-anchor="end" font-family="Cascadia Code, Consolas, Courier New, monospace" font-size="10" fill="#52525B">using static Microsoft.UI.Reactor.Factories;</text>

  <text x="592" y="292" font-family="Cascadia Code, Consolas, Courier New, monospace" font-size="13" fill="#D4D4D8">var (count, setCount) = UseState(0);</text>
  <text x="592" y="324" font-family="Cascadia Code, Consolas, Courier New, monospace" font-size="13" fill="#D4D4D8">VStack(gap: 8,</text>
  <text x="608" y="346" font-family="Cascadia Code, Consolas, Courier New, monospace" font-size="13" fill="#D4D4D8">TextBlock("Hello!").Bold().FontSize(24),</text>
  <text x="608" y="368" font-family="Cascadia Code, Consolas, Courier New, monospace" font-size="13" fill="#D4D4D8">Button($"Count: {count}",</text>
  <text x="624" y="390" font-family="Cascadia Code, Consolas, Courier New, monospace" font-size="13" fill="#D4D4D8">onClick: () =&gt; setCount(c =&gt; c + 1))</text>
  <text x="592" y="412" font-family="Cascadia Code, Consolas, Courier New, monospace" font-size="13" fill="#D4D4D8">);</text>

  <!-- 3. Flexbox Layout  (tall right, 220x280) -->
  <rect x="1030" y="228" width="220" height="280" rx="14" fill="#1D4ED8"/>
  <g transform="translate(1105, 248)" opacity="0.2">
    <rect x="4" y="18" width="16" height="34" rx="3" fill="white"/>
    <rect x="27" y="4" width="16" height="62" rx="3" fill="white"/>
    <rect x="50" y="28" width="16" height="24" rx="3" fill="white"/>
  </g>
  <text x="1052" y="340" font-family="Segoe UI, sans-serif" font-size="13" fill="#BFDBFE">Flexbox</text>
  <text x="1052" y="368" font-family="Segoe UI, sans-serif" font-size="24" font-weight="700" fill="#FFFFFF">Layout</text>
  <text x="1052" y="398" font-family="Segoe UI, sans-serif" font-size="11" fill="#E0E0E6">Meta's Yoga engine</text>
  <text x="1052" y="414" font-family="Segoe UI, sans-serif" font-size="11" fill="#E0E0E6">FlexRow &#xB7; FlexColumn</text>
  <text x="1052" y="430" font-family="Segoe UI, sans-serif" font-size="11" fill="#E0E0E6">gap &#xB7; grow &#xB7; wrap</text>

  <!-- ================================================================ -->
  <!-- ROW 4  (y=518, h=130)  — three tiles, wider now                 -->
  <!-- ================================================================ -->

  <!-- 7. Dev Tools  (380x130) -->
  <rect x="30" y="518" width="380" height="130" rx="14" fill="#C2410C"/>
  <g transform="translate(348, 559)" opacity="0.2">
    <rect x="0" y="0" width="44" height="34" rx="3" fill="none" stroke="white" stroke-width="2.5"/>
    <polyline points="8,12 14,20 8,28" fill="none" stroke="white" stroke-width="2.5" stroke-linecap="round" stroke-linejoin="round"/>
    <line x1="20" y1="28" x2="32" y2="28" stroke="white" stroke-width="2.5" stroke-linecap="round"/>
  </g>
  <text x="54" y="564" font-family="Segoe UI, sans-serif" font-size="17" font-weight="700" fill="#FFFFFF">Dev Tools</text>
  <text x="54" y="590" font-family="Segoe UI, sans-serif" font-size="12" fill="#E0E0E6">MCP server &#xB7; tree &#xB7; click &#xB7; type &#xB7; screenshot</text>
  <text x="54" y="608" font-family="Segoe UI, sans-serif" font-size="12" fill="#E0E0E6">Hot reload &#xB7; ETW tracing &#xB7; VS Code extension</text>

  <!-- 8. Animations  (420x130) -->
  <rect x="420" y="518" width="420" height="130" rx="14" fill="#0F766E"/>
  <g transform="translate(780, 561)" opacity="0.2">
    <circle cx="30" cy="22" r="12" fill="white"/>
    <line x1="2" y1="10" x2="14" y2="10" stroke="white" stroke-width="3" stroke-linecap="round"/>
    <line x1="0" y1="22" x2="14" y2="22" stroke="white" stroke-width="3" stroke-linecap="round"/>
    <line x1="2" y1="34" x2="14" y2="34" stroke="white" stroke-width="3" stroke-linecap="round"/>
  </g>
  <text x="444" y="564" font-family="Segoe UI, sans-serif" font-size="17" font-weight="700" fill="#FFFFFF">Animations</text>
  <text x="444" y="590" font-family="Segoe UI, sans-serif" font-size="12" fill="#E0E0E6">Opacity &#xB7; Scale &#xB7; Translation &#xB7; Layout</text>
  <text x="444" y="608" font-family="Segoe UI, sans-serif" font-size="12" fill="#E0E0E6">Connected &#xB7; Springs &#xB7; hardware-accelerated</text>

  <!-- 9. MVVM Bridge  (400x130) -->
  <rect x="850" y="518" width="400" height="130" rx="14" fill="#7E22CE"/>
  <g transform="translate(1190, 561)" opacity="0.2">
    <line x1="8" y1="22" x2="36" y2="22" stroke="white" stroke-width="3" stroke-linecap="round"/>
    <polyline points="14,14 6,22 14,30" fill="none" stroke="white" stroke-width="3" stroke-linecap="round" stroke-linejoin="round"/>
    <polyline points="30,14 38,22 30,30" fill="none" stroke="white" stroke-width="3" stroke-linecap="round" stroke-linejoin="round"/>
  </g>
  <text x="874" y="564" font-family="Segoe UI, sans-serif" font-size="17" font-weight="700" fill="#FFFFFF">MVVM Bridge</text>
  <text x="874" y="590" font-family="Segoe UI, sans-serif" font-size="12" fill="#E0E0E6">UseObservable &#xB7; UseObservableTree</text>
  <text x="874" y="608" font-family="Segoe UI, sans-serif" font-size="12" fill="#E0E0E6">Incremental adoption from WPF / WinUI</text>

  <!-- ================================================================ -->
  <!-- ROW 5  (y=658, h=102)  — two tiles                              -->
  <!-- ================================================================ -->

  <!-- 10. Commanding &amp; Accessibility  (820x102) -->
  <rect x="30" y="658" width="820" height="102" rx="14" fill="#334155"/>
  <g transform="translate(796, 688)" opacity="0.2">
    <circle cx="19" cy="19" r="17" fill="none" stroke="white" stroke-width="2.5"/>
    <circle cx="19" cy="10" r="3" fill="white"/>
    <path d="M10,17 L19,19 L28,17 M19,19 L19,27 M13,34 L19,27 L25,34" fill="none" stroke="white" stroke-width="2.5" stroke-linecap="round" stroke-linejoin="round"/>
  </g>
  <text x="54" y="694" font-family="Segoe UI, sans-serif" font-size="17" font-weight="700" fill="#FFFFFF">Commanding &amp; Accessibility</text>
  <text x="54" y="718" font-family="Segoe UI, sans-serif" font-size="12" fill="#E0E0E6">Command: action + label + icon + keyboard shortcut</text>
  <text x="54" y="736" font-family="Segoe UI, sans-serif" font-size="12" fill="#E0E0E6">Screen readers &#xB7; Landmarks &#xB7; High contrast &#xB7; Access keys</text>

  <!-- 11. Localization  (390x102) -->
  <rect x="860" y="658" width="390" height="102" rx="14" fill="#A16207"/>
  <g transform="translate(1196, 688)" opacity="0.2">
    <circle cx="19" cy="19" r="16" fill="none" stroke="white" stroke-width="2.5"/>
    <ellipse cx="19" cy="19" rx="8" ry="16" fill="none" stroke="white" stroke-width="2"/>
    <line x1="3" y1="19" x2="35" y2="19" stroke="white" stroke-width="2"/>
    <line x1="6" y1="11" x2="32" y2="11" stroke="white" stroke-width="1.5"/>
    <line x1="6" y1="27" x2="32" y2="27" stroke="white" stroke-width="1.5"/>
  </g>
  <text x="884" y="694" font-family="Segoe UI, sans-serif" font-size="17" font-weight="700" fill="#FFFFFF">Localization</text>
  <text x="884" y="718" font-family="Segoe UI, sans-serif" font-size="12" fill="#E0E0E6">ICU MessageFormat &#xB7; RTL support</text>
  <text x="884" y="736" font-family="Segoe UI, sans-serif" font-size="12" fill="#E0E0E6">Pseudo-localization testing</text>

</svg>
